<svg xmlns="http://www.w3.org/2000/svg" viewBox="0 0 65.57 79.42"><g><g><path d="M65.43 40.05L26.19 79.28a.48.48 0 0 1-.68 0l-2.23-2.23L1.11 54.87l-.39-.39-.58-.58a.48.48 0 0 1-.14-.21.46.46 0 0 1 0-.12V25.85a.48.48 0 0 1 .14-.34l.59-.59.39-.39L25.52.14a.48.48 0 0 1 .68 0l39.23 39.23a.48.48 0 0 1 0 .68z" fill="#333333"/><path d="M19.63 31.62a.48.48 0 0 1-.34-.14l-8.71-8.71a.48.48 0 0 1 0-.69l9.84-9.84a.48.48 0 0 1 .69 0l8.7 8.76a.48.48 0 0 1 0 .69L20 31.48a.48.48 0 0 1-.37.14zM29.38 3.33a.49.49 0 0 0-.16.11l-6.47 6.47a.48.48 0 0 0 0 .68l8.71 8.71a.49.49 0 0 0 .69 0l6.47-6.47a.48.48 0 0 0 .11-.16zM44.13 56.07a.48.48 0 0 1-.34-.14l-8.71-8.71a.48.48 0 0 1 0-.69l9.84-9.84a.48.48 0 0 1 .69 0l8.71 8.71a.48.48 0 0 1 0 .69l-9.84 9.84a.48.48 0 0 1-.35.14zM32 68.2a.48.48 0 0 1-.34-.14l-8.76-8.71a.48.48 0 0 1 0-.69l9.84-9.84a.48.48 0 0 1 .69 0l8.71 8.71a.48.48 0 0 1 0 .69l-9.84 9.84a.48.48 0 0 1-.3.14zM53.83 27.78a.47.47 0 0 0-.16.11l-6.47 6.47a.48.48 0 0 0 0 .68l8.71 8.71a.48.48 0 0 0 .69 0l6.47-6.47a.49.49 0 0 0 .11-.16zM29.81 69.86l-8.71-8.72a.48.48 0 0 0-.68 0l-6.47 6.47v.05l9.39 9.39h.05l6.47-6.47a.49.49 0 0 0-.05-.72zM17.68 33.09L9 24.37a.48.48 0 0 0-.69 0l-4.08 4.06 9.4 9.4 4.05-4.05a.48.48 0 0 0 0-.69z" fill="#fff"/><path d="M15.83 39.7a1.08 1.08 0 0 1-.32.76L1.11 54.87l-.39-.39-.58-.58a.48.48 0 0 1-.14-.21.46.46 0 0 1 0-.12v-.64L13.23 39.7 0 26.47v-.62a.48.48 0 0 1 .14-.34l.59-.59.39-.39 14.4 14.4a1.07 1.07 0 0 1 .31.77z" fill="#fff"/></g></g></svg>